<?xml version="1.0" standalone="no"?>
<!DOCTYPE svg PUBLIC "-//W3C//DTD SVG 20010904//EN"
 "http://www.w3.org/TR/2001/REC-SVG-20010904/DTD/svg10.dtd">
<svg version="1.0" xmlns="http://www.w3.org/2000/svg"
 width="40.000000pt" height="40.000000pt" viewBox="0 0 40.000000 40.000000"
 preserveAspectRatio="xMidYMid meet">

<g transform="translate(0.000000,40.000000) scale(0.100000,-0.100000)"
fill="#000000" stroke="none">
<path d="M115 376 c-62 -27 -115 -112 -115 -187 0 -48 49 -127 94 -154 88 -51
209 -25 263 56 85 129 -4 300 -156 299 -31 -1 -70 -7 -86 -14z m-7 -173 c-3
-36 -5 -38 -40 -41 l-38 -3 0 40 0 41 41 0 40 0 -3 -37z m130 0 c-3 -36 -5
-38 -40 -41 l-38 -3 0 40 0 41 41 0 40 0 -3 -37z m122 12 c0 -20 -5 -25 -25
-25 -16 0 -25 -6 -25 -15 0 -8 -7 -15 -15 -15 -11 0 -15 11 -15 40 l0 40 40 0
c36 0 40 -2 40 -25z"/>
<path d="M180 205 c0 -8 7 -15 15 -15 8 0 15 7 15 15 0 8 -7 15 -15 15 -8 0
-15 -7 -15 -15z"/>
</g>
</svg>
